<svg width="65" height="31" viewBox="0 0 65 31" fill="none" xmlns="http://www.w3.org/2000/svg">
<path d="M36.7563 21.7571C36.6255 21.6819 36.4936 21.6077 36.3638 21.5304C35.8941 21.2388 35.3925 21.0019 34.8688 20.8247C34.6325 20.7439 34.4007 20.6507 34.1744 20.5454C33.9869 20.462 33.788 20.4105 33.5922 20.3497C32.8195 20.1148 32.0066 20.0375 31.2215 19.8572C31.1865 19.849 31.1515 19.8397 31.1154 19.8387C31.0659 19.8366 31.0196 19.8634 31.0052 19.9128C30.9731 20.0235 30.9476 20.136 30.9289 20.2497C30.9238 20.2776 30.9516 20.3219 30.9763 20.3383C31.0721 20.4033 31.1752 20.4517 31.2936 20.4723C31.6831 20.5423 32.0705 20.6176 32.4579 20.6928C32.6258 20.7247 32.7927 20.7587 32.9596 20.7958C33.0204 20.8092 33.0822 20.8257 33.1369 20.8535C33.2656 20.9194 33.4016 20.9545 33.549 20.9658C33.6365 20.973 33.7272 20.9967 33.8065 21.0338C34.2568 21.2502 34.7328 21.4047 35.1985 21.584C35.3067 21.6252 35.4107 21.6767 35.5107 21.7344C35.9661 21.9961 36.4194 22.2619 36.8738 22.5277C37.0427 22.6256 37.2107 22.7266 37.3786 22.8255C37.7341 23.0336 38.1173 23.1789 38.5161 23.286C38.991 23.4138 39.4639 23.5477 39.9399 23.6755C40.2171 23.7497 40.4994 23.8043 40.792 23.8053C41.2216 23.8074 41.6368 23.8795 42.0541 23.9516C42.3632 24.0052 42.6775 24.0443 42.9896 24.0887L44.2188 24.2638C44.3259 24.2793 44.4331 24.2937 44.5402 24.305C44.7772 24.3318 45.0121 24.2978 45.246 24.2133C45.3497 24.1731 45.4575 24.144 45.5675 24.1268C45.7498 24.1031 45.8848 24.0196 45.9538 23.8331C45.9806 23.759 46.029 23.7239 46.1001 23.7177C46.4113 23.693 46.7214 23.6683 47.0222 23.7456C47.117 23.7703 47.2149 23.7868 47.3118 23.8053C47.4577 23.8371 47.6103 23.814 47.7404 23.7404C48.0546 23.5622 48.3792 23.5405 48.7068 23.5766C49.3456 23.6487 49.9699 23.7723 50.5861 23.932C51.0888 24.0619 51.5855 24.2164 52.0944 24.3215C52.692 24.4451 53.2762 24.6151 53.8665 24.7645C54.4013 24.9005 54.9453 24.952 55.5068 24.9047C55.8993 24.8707 56.2919 24.847 56.6844 24.8016C57.2325 24.7357 57.7796 24.7213 58.3267 24.6965C59.0304 24.6656 59.7331 24.61 60.4347 24.4822C60.4883 24.4719 60.546 24.4616 60.5975 24.4688C60.6253 24.473 60.649 24.5121 60.6665 24.541C60.6707 24.5502 60.6439 24.5935 60.6253 24.5997C60.3121 24.7068 60.0278 24.884 59.7434 25.0602C59.4024 25.2714 59.0603 25.4816 58.7203 25.6949C58.6317 25.7505 58.541 25.8072 58.4627 25.8773C58.397 25.9339 58.3416 26.0016 58.2989 26.0771C58.201 26.2595 58.3082 26.4316 58.5039 26.412C58.5681 26.4038 58.6307 26.3857 58.6894 26.3584C58.7584 26.3275 58.8233 26.2853 58.8882 26.2451C59.3189 25.9793 59.7516 25.7165 60.1802 25.4456C60.5172 25.2333 60.8736 25.0953 61.2497 25.0221C61.3218 25.0077 61.3939 24.9891 61.4671 24.9788C62.2079 24.8696 62.8395 24.4946 63.4061 23.9722C63.5345 23.8443 63.6882 23.7446 63.8574 23.6796C63.9682 23.6459 64.0655 23.5782 64.1356 23.4859C64.1977 23.3997 64.2914 23.3415 64.3962 23.3242C64.5178 23.3036 64.6157 23.354 64.6507 23.4715C64.6718 23.5449 64.6778 23.6219 64.6682 23.6977C64.6586 23.7735 64.6338 23.8466 64.5951 23.9125C64.4447 24.1742 64.3087 24.4451 64.1232 24.6873C63.9759 24.881 63.843 25.086 63.6977 25.2817C63.4288 25.6475 63.1001 25.9453 62.7375 26.2028C62.3927 26.4437 62.0312 26.6596 61.6556 26.8488C61.4197 26.9694 61.1848 27.0951 60.9509 27.2197C60.8239 27.2894 60.7085 27.3784 60.6088 27.4835C60.4863 27.6073 60.3602 27.7275 60.2307 27.8441C60.1052 27.9631 59.9625 28.0624 59.8073 28.1388C59.731 28.1748 59.661 28.2274 59.5909 28.2779C59.4188 28.4005 59.253 28.5334 59.0778 28.6498C58.8048 28.8311 58.5163 28.9692 58.2041 29.0413C58.0702 29.0722 57.9332 29.1176 57.8064 29.1783C57.6507 29.2614 57.4759 29.3019 57.2995 29.2958C57.1984 29.2889 57.0969 29.3018 57.0007 29.3339C56.3506 29.5668 55.685 29.6574 55.0184 29.7306C54.6527 29.7718 54.2869 29.7842 53.9232 29.8161C53.6131 29.8429 53.3019 29.8759 52.9918 29.9099C52.59 29.9542 52.1892 30.0026 51.7874 30.05C51.7328 30.0562 51.6802 30.0603 51.6339 30.1056C51.4701 30.2622 51.2702 30.3045 51.0672 30.3343C50.769 30.3764 50.4674 30.3895 50.1667 30.3735C50.0026 30.3605 49.8374 30.3713 49.6763 30.4054C49.5973 30.4278 49.5147 30.4341 49.4333 30.4238C49.3518 30.4135 49.2733 30.387 49.2024 30.3457C49.1405 30.3076 49.0859 30.3127 49.0231 30.3354C48.953 30.3611 48.8819 30.3848 48.8108 30.4116C48.545 30.5095 48.2751 30.5713 47.999 30.5919C47.8444 30.6043 47.6899 30.63 47.5343 30.6507C47.2767 30.6836 47.0284 30.6692 46.776 30.6239C45.9615 30.4776 45.1451 30.3423 44.327 30.2179C43.4007 30.0788 42.4693 29.9655 41.5452 29.8223C41.0755 29.7443 40.6091 29.6481 40.147 29.5338C39.5288 29.3875 38.9138 29.2247 38.3162 29.0125C37.9633 28.8871 37.6126 28.7555 37.2642 28.6179C37.1319 28.5642 37.0053 28.4976 36.8861 28.419C36.5873 28.2253 36.2885 28.0306 36.0001 27.8214C35.7682 27.6545 35.5828 27.432 35.4076 27.2033C35.3131 27.0823 35.222 26.9586 35.1346 26.8323C34.8029 26.3481 34.3681 25.9834 33.8828 25.6763C33.5809 25.4847 33.2512 25.3487 32.9246 25.2076C32.7185 25.12 32.5084 25.0458 32.3013 24.9644C32.1949 24.915 32.0785 24.8911 31.9613 24.8943C31.9083 24.8953 31.857 24.9127 31.8144 24.944C31.7718 24.9754 31.7399 25.0192 31.7233 25.0695C31.7045 25.1129 31.7001 25.1612 31.7106 25.2074C31.7212 25.2535 31.7462 25.2951 31.782 25.326C31.8541 25.3899 31.9365 25.4476 32.0252 25.4868C32.2446 25.5847 32.4682 25.6722 32.6928 25.7608C33.244 25.9782 33.755 26.2616 34.1991 26.6572C34.2856 26.7345 34.3639 26.822 34.4412 26.9086C34.4711 26.9405 34.4927 26.9807 34.5164 27.0178C34.4639 27.0652 34.4134 27.0405 34.3619 27.025C34.0631 26.9292 33.7437 26.9117 33.4336 26.8643C32.9978 26.7963 32.5619 26.7324 32.1251 26.6654C31.8869 26.6238 31.6534 26.5592 31.4276 26.4728C30.8485 26.2667 30.2675 26.0607 29.6905 25.8463C29.3484 25.7196 29.0105 25.5805 28.6736 25.4383C28.2388 25.255 27.8071 25.0643 27.3754 24.8748C27.1786 24.7893 26.9839 24.7017 26.7902 24.611C26.4759 24.4627 26.1638 24.3102 25.8495 24.1618C25.5682 24.0299 25.2828 23.9022 25.0005 23.7713C24.7255 23.6446 24.4504 23.5189 24.1784 23.387C23.929 23.2675 23.6848 23.1397 23.4365 23.0182C22.9873 22.8018 22.5402 22.5803 22.0869 22.3732C21.7581 22.214 21.4515 22.0124 21.175 21.7736C20.5072 21.2224 19.8637 20.6425 19.2463 20.0354C19.0742 19.8665 18.8878 19.714 18.7085 19.5533C18.6972 19.543 18.692 19.5244 18.6838 19.51L18.759 19.4801C18.7672 19.477 18.7775 19.4801 18.7858 19.4822C19.0948 19.5399 19.4019 19.611 19.6924 19.7263C20.1643 19.9139 20.6238 20.1313 21.0607 20.3899C21.513 20.6577 21.9756 20.9071 22.4619 21.108C22.9667 21.3151 23.4963 21.448 24.0393 21.5356C24.1208 21.545 24.2033 21.5408 24.2835 21.5232C24.3391 21.5109 24.3911 21.4855 24.4349 21.449C24.5534 21.3542 24.5688 21.2017 24.472 21.1008C24.436 21.0616 24.3911 21.0316 24.3412 21.0132C24.2484 20.9823 24.1516 20.9637 24.0547 20.9431C23.6591 20.8628 23.2645 20.7752 22.8905 20.6289C22.5144 20.4888 22.1493 20.3208 21.7984 20.1261C21.5665 19.9942 21.3388 19.8531 21.1029 19.7284C20.6393 19.4832 20.1695 19.2493 19.6646 19.0896C19.2278 18.9485 18.7744 18.8654 18.3159 18.8423C18.0718 18.831 17.8265 18.8238 17.5824 18.8135C17.4917 18.8104 17.4 18.8094 17.3104 18.798C17.2135 18.7857 17.1167 18.7713 17.0445 18.6888C16.9807 18.6167 16.89 18.5971 16.7952 18.6322C16.6994 18.6672 16.6128 18.6445 16.5284 18.6198C16.0745 18.4867 15.6281 18.3295 15.191 18.149C14.7964 17.9841 14.4008 17.8223 14.0185 17.6307C13.8985 17.5727 13.7813 17.5091 13.6672 17.4401C13.4096 17.2794 13.1572 17.1125 12.9048 16.9476C12.6312 16.7775 12.3841 16.5682 12.1712 16.3263C12.0733 16.211 11.9909 16.0791 11.9033 15.9544C11.8776 15.9173 11.8611 15.872 11.8343 15.837C11.7972 15.7875 11.7261 15.7473 11.721 15.6937C11.7158 15.6144 11.7519 15.5268 11.7776 15.4444C11.8013 15.3713 11.8353 15.3002 11.8652 15.228C11.9641 14.9931 12.0342 14.752 12.0507 14.5007C12.0579 14.4048 12.0682 14.309 12.0692 14.2142C12.0775 13.7928 12.1444 13.3766 12.232 12.9583C12.3144 12.5585 12.4319 12.1753 12.6019 11.7992C12.9336 11.0646 13.4467 10.5731 14.205 10.3928C14.5914 10.3001 14.9695 10.2795 15.3301 10.4299C15.3961 10.4577 15.4682 10.468 15.5352 10.4928C15.7742 10.5824 16.0235 10.5979 16.2832 10.567C16.7138 10.5154 17.1414 10.502 17.5638 10.5597C18.0099 10.6216 18.455 10.6906 18.8795 10.8338C19.0578 10.8925 19.2298 10.9677 19.406 11.0296C19.4891 11.0625 19.5766 11.0833 19.6656 11.0914C19.8346 11.0986 19.9418 10.9265 19.8645 10.773C19.7794 10.6132 19.6408 10.4885 19.473 10.4207C19.153 10.2815 18.8185 10.1785 18.4756 10.1136C18.3087 10.0796 18.1398 10.0518 17.9718 10.0209C17.4342 9.92682 16.8857 9.91259 16.3439 9.97865C16.1111 10.0065 15.8885 9.99926 15.6773 9.91271C15.6444 9.89829 15.6052 9.89829 15.5743 9.88489C15.0561 9.66544 14.5162 9.71489 13.966 9.86326C13.9032 9.87974 13.8413 9.90344 13.7775 9.91683C13.7548 9.92096 13.7177 9.91374 13.7332 9.87356C13.7929 9.71902 13.8568 9.5655 13.9825 9.45011C14.067 9.37077 14.1484 9.28526 14.2401 9.21726C14.442 9.06786 14.6357 8.90817 14.8129 8.72889C14.8793 8.66022 14.9647 8.61288 15.0581 8.59289C15.2951 8.54035 15.5135 8.43629 15.733 8.31471C15.9298 8.20447 16.1502 8.14368 16.3635 8.07774C16.4398 8.05302 16.5273 8.06641 16.6067 8.07774C16.7313 8.09423 16.856 8.11689 16.9776 8.1478C17.4196 8.26114 17.8636 8.37138 18.3005 8.49811C18.5838 8.58053 18.861 8.68047 19.135 8.78659C19.8748 9.07405 20.6166 9.35635 21.3759 9.59332C21.6397 9.67574 21.9086 9.74786 22.1744 9.82514C22.5433 9.93435 22.8977 10.0807 23.2408 10.2527C23.6859 10.4773 24.1268 10.7071 24.5534 10.9677C25.0098 11.2459 25.3725 11.623 25.6661 12.0763C25.8196 12.3113 25.969 12.5503 26.1298 12.777C26.445 13.222 26.8232 13.6033 27.2198 13.9639C27.3115 14.0463 27.4218 14.1102 27.5279 14.1751C27.6052 14.2225 27.6927 14.239 27.7885 14.2204C27.9462 14.1905 28.0482 14.0092 27.9719 13.8701C27.9239 13.7839 27.8583 13.7088 27.7793 13.6496C27.5351 13.4673 27.3249 13.2478 27.1116 13.0314C26.8544 12.7668 26.6232 12.478 26.4213 12.1691C26.397 12.1309 26.3756 12.091 26.3575 12.0496C26.3533 12.0423 26.3708 12.0125 26.3781 12.0125C26.4502 12.0125 26.5223 12.0125 26.5944 12.0187C27.0951 12.0692 27.5885 12.1752 28.0657 12.335C28.3109 12.4153 28.5541 12.506 28.7766 12.6389C29.0826 12.8213 29.3948 12.9943 29.6936 13.187C29.9336 13.3395 30.1562 13.5208 30.3921 13.6785C30.7836 13.9422 31.1648 14.2204 31.5801 14.4481C31.6027 14.4605 31.6254 14.478 31.6512 14.4842C31.8974 14.548 32.1004 14.6974 32.3209 14.8118C32.4785 14.8942 32.6402 14.9684 32.7989 15.0498C33.0998 15.2054 33.3913 15.3733 33.6675 15.5722C34.1156 15.8947 34.5442 16.2429 34.9708 16.5953C35.3623 16.9188 35.7518 17.2464 36.1587 17.5493C36.509 17.81 36.8758 18.0459 37.2436 18.2808C38.0267 18.7785 38.7633 19.3359 39.4011 20.0231C39.7741 20.4249 40.1862 20.7803 40.6045 21.1286C40.7817 21.2759 40.9744 21.4068 41.165 21.5366C41.4019 21.6963 41.6389 21.856 41.8852 21.9982C42.1551 22.1527 42.4312 22.297 42.7135 22.4288C43.4399 22.7709 44.1147 23.2047 44.8225 23.5828C44.8535 23.5993 44.8844 23.6178 44.9132 23.6384C44.9266 23.6487 44.9348 23.6662 44.9462 23.6796C44.9225 23.694 44.8978 23.7188 44.8741 23.7188C44.7484 23.7198 44.6185 23.727 44.4949 23.7105C44.1735 23.6673 43.8551 23.6127 43.5347 23.5622C43.4553 23.5498 43.376 23.5292 43.2946 23.5251C42.833 23.4973 42.3828 23.4128 41.9315 23.3303C41.6034 23.2668 41.2704 23.2323 40.9362 23.2273C40.6833 23.2258 40.4316 23.1918 40.1872 23.1263C39.6082 22.9718 39.0312 22.8111 38.4553 22.6473C38.1973 22.5739 37.9495 22.4687 37.7176 22.334L36.746 21.7736C36.7501 21.7694 36.7532 21.7633 36.7563 21.7571Z" fill="black"/>
<path d="M4.80454 8.10141C4.94466 8.16323 5.12806 8.25596 5.31969 8.32602C5.6123 8.4342 5.90903 8.53208 6.20781 8.6248C6.49939 8.71547 6.80333 8.75256 7.11448 8.74844C7.25975 8.74844 7.40606 8.74535 7.55133 8.73608C7.99464 8.70415 8.44023 8.73152 8.8763 8.81747C8.92987 8.82778 8.98448 8.8319 9.03599 8.84632C9.11842 8.86899 9.19569 8.84838 9.27399 8.80511C9.41618 8.72784 9.56042 8.65777 9.70363 8.58359C9.82009 8.52301 9.94772 8.48689 10.0787 8.47747C10.2971 8.46202 10.5165 8.44141 10.735 8.43626C10.9544 8.43111 11.1687 8.40638 11.3871 8.34147C11.6272 8.26935 11.8745 8.23123 12.1187 8.1828C12.301 8.14571 12.4782 8.09008 12.6524 8.01487C13.0219 7.8592 13.4113 7.75586 13.8094 7.70784C14.0845 7.67074 14.3544 7.70784 14.6192 7.75935C14.7377 7.78202 14.7665 7.87681 14.7016 7.99632C14.6131 8.15908 14.4839 8.2961 14.3266 8.39402C13.9485 8.63099 13.6394 8.95038 13.3561 9.29862C13.2873 9.38111 13.2326 9.47441 13.1943 9.57474C13.1123 9.78394 12.9858 9.97275 12.8234 10.128C12.7358 10.2187 12.6462 10.3083 12.5617 10.4021C12.4934 10.4826 12.4092 10.5482 12.3144 10.5947C12.1764 10.6586 12.0981 10.7647 12.0599 10.9244C12.0115 11.1202 11.9456 11.316 11.859 11.5014C11.6839 11.8764 11.587 12.269 11.5201 12.6698C11.4768 12.9263 11.4428 13.1839 11.3985 13.4394C11.3053 14.013 11.1633 14.5776 10.974 15.127C10.9328 15.2445 10.8741 15.3599 10.8091 15.4691C10.6804 15.6855 10.3785 15.7432 10.2157 15.5783C10.142 15.4994 10.0787 15.4115 10.0271 15.3166C9.9859 15.2446 9.95569 15.1668 9.93751 15.0858C9.86539 14.7695 9.70878 14.5078 9.5223 14.2616C9.35436 14.038 9.20806 13.798 9.03806 13.5754C8.84024 13.3189 8.62696 13.0767 8.42296 12.8264C8.22359 12.5831 8.02577 12.3386 7.82951 12.0928C7.7237 11.9642 7.65813 11.8072 7.64096 11.6415C7.63478 11.5797 7.6049 11.5385 7.54824 11.5189C7.09586 11.3555 6.65255 11.1681 6.22018 10.9574C5.71224 10.7204 5.21048 10.4701 4.72624 10.1878C4.39654 9.99614 4.08848 9.76638 3.77527 9.54796C3.44007 9.31191 3.11909 9.05629 2.81399 8.78244C2.37883 8.39353 1.98865 7.95705 1.65078 7.48117C1.48284 7.24626 1.32109 7.0062 1.17066 6.75893C0.783392 6.11319 0.550009 5.38696 0.488601 4.6365C0.432147 4.12286 0.452985 3.60366 0.550419 3.0962C0.607086 2.82214 0.669934 2.54808 0.737934 2.27608C0.762358 2.19423 0.767645 2.10787 0.753389 2.02365C0.702395 1.74639 0.755989 1.46007 0.903813 1.22002C1.00169 1.05105 1.11193 0.88826 1.23351 0.736805C1.39733 0.532805 1.62399 0.489533 1.82593 0.610078C1.89393 0.65129 1.95987 0.702805 2.0083 0.764624C2.1546 0.945957 2.29884 1.13141 2.43072 1.32511C2.61824 1.6002 2.61721 1.91547 2.41218 2.20087C2.32623 2.33 2.25862 2.47043 2.21127 2.61814C2.1783 2.70881 2.15975 2.80462 2.13193 2.89838C2.08557 3.06014 2.05981 3.20953 2.16696 3.35481C2.21539 3.41971 2.21436 3.53099 2.2226 3.62371C2.22981 3.70717 2.22054 3.79474 2.21848 3.88129C2.20053 4.49112 2.32802 5.09645 2.59042 5.64723C2.71509 5.91099 2.85109 6.16959 2.99636 6.42202C3.25703 6.87535 3.60218 7.25141 4.01533 7.55432C4.25951 7.73359 4.51193 7.89947 4.80454 8.10141Z" fill="black"/>
</svg>
