<svg width="58" height="59" viewBox="0 0 58 59" fill="none" xmlns="http://www.w3.org/2000/svg">
<g clip-path="url(#clip0_0_152)">
<path d="M29 58.2272C44.762 58.2272 57.5397 45.4495 57.5397 29.6875C57.5397 13.9255 44.762 1.14783 29 1.14783C13.238 1.14783 0.460327 13.9255 0.460327 29.6875C0.460327 45.4495 13.238 58.2272 29 58.2272Z" stroke="black" stroke-width="1.01587"/>
<path d="M37.9486 22.0831C37.8694 21.8032 37.4827 21.8216 37.4422 22.1098C37.2001 23.7991 38.5921 27.7956 38.095 29.6442C38.0915 29.6565 38.0882 29.6688 38.0848 29.6811C37.9771 30.0769 37.4091 29.9996 37.4045 29.5881C37.3879 27.9908 36.9791 26.2434 36.1027 25.1736C32.8004 21.144 36.3273 18.1704 36.1966 17.2065C36.1937 17.1768 36.184 17.1483 36.1683 17.123C36.1526 17.0977 36.1313 17.0763 36.106 17.0606C36.0808 17.0448 36.0522 17.0351 36.0226 17.0321C35.9929 17.0292 35.963 17.0331 35.9351 17.0435C35.9305 17.0453 35.9269 17.0463 35.9259 17.0481C35.7142 17.1678 35.5172 17.3123 35.3202 17.4532C33.9991 18.3978 32.7884 19.5338 32.0887 21.0648C31.6873 21.945 31.5815 22.9273 31.3522 23.8617C31.2638 24.2171 31.1635 24.5688 31.0457 24.9149C30.914 25.3034 30.7299 25.6938 30.438 25.9819C30.3073 26.1108 30.148 26.2057 29.9713 26.2406C29.5073 26.3327 29.2615 26.0013 29.1731 25.6119C28.9273 24.5273 29.1086 23.4318 29.2007 22.3399C29.5708 17.9448 24.9124 17.536 26.6137 11.1266C27.0648 9.42893 20.9702 15.0107 23.0232 19.8671C23.4256 20.8172 23.3878 21.7231 22.933 22.6382C22.4478 23.6141 21.8504 24.496 21.5557 25.564C21.4508 25.9479 21.391 26.3364 21.344 26.7304C21.2842 27.2377 21.4269 28.0009 20.776 28.1325C20.5053 28.1878 20.1315 28.1574 19.9069 27.976C19.732 27.8333 19.6353 27.6115 19.5782 27.3896C19.3085 26.353 19.3416 25.3044 19.4696 24.2466C19.5828 23.3149 19.6611 21.5601 18.7202 23.3112C15.6858 28.9547 15.7944 35.9819 19.4981 41.2755C20.9224 43.3111 22.7296 44.6082 25.0928 45.2011C29.9004 46.4072 35.6479 46.0417 38.674 41.7929C39.8304 40.1699 40.5245 38.1877 40.9784 36.2461C41.5584 33.7659 41.6689 31.41 40.7611 29.0035C39.881 26.6678 38.6363 24.497 37.9486 22.0831Z" fill="black"/>
</g>
<defs>
<clipPath id="clip0_0_152">
<rect width="58" height="58" fill="white" transform="translate(0 0.6875)"/>
</clipPath>
</defs>
</svg>
