<svg width="58" height="89" viewBox="0 0 58 89" fill="none" xmlns="http://www.w3.org/2000/svg">
<g clip-path="url(#clip0_0_142)">
<path d="M44.2457 55.0648C44.1647 54.8824 43.9594 54.9253 43.9161 55.1205C43.4954 57.0215 44.0248 65.038 40.5245 64.0173C38.0922 63.3076 38.0922 56.777 42.8998 53.099C49.2392 48.2497 44.9878 36.463 43.4199 32.3662C43.2846 32.015 42.816 32.1437 42.8399 32.5241C43.1612 37.4819 43.9253 40.9164 42.1025 43.5883C40.0679 46.5685 37.3566 40.8608 39.9556 38.8329C42.5545 36.8032 42.3308 32.712 40.4638 30.0191C38.895 27.7559 38.512 23.8307 38.4319 21.4288C38.4117 20.8167 37.6438 20.7036 37.4837 21.2892C36.7223 24.0706 37.1191 27.0371 36.4553 29.844C36.1948 30.9478 35.7391 32.0324 34.9933 32.9044C34.4934 33.4883 33.8352 34.0812 33.083 34.3129C32.0639 34.6285 31.425 33.9225 31.2777 32.9628C31.1294 31.9968 31.3329 30.9742 31.6257 30.0538C31.9663 28.9865 32.2977 27.9283 32.4984 26.8236C32.8906 24.6635 32.8934 22.2024 31.4443 20.3998C30.9214 19.7513 30.2456 19.2386 29.5018 18.8582C23.6981 15.8935 25.9545 15.4392 25.7787 9.69777C25.7548 8.89228 24.6445 8.67609 24.3057 9.40859C20.6443 17.3567 21.3864 19.9903 23.0941 23.7431C25.4012 28.815 27.7093 35.663 23.5489 35.3601C19.8784 35.0919 21.4223 25.5949 20.3212 22.0509C20.1398 21.4644 19.2689 21.5775 19.245 22.1905C19.1547 24.5915 18.7202 28.5176 16.9397 30.7799C14.8222 33.4737 14.5681 37.5649 17.5169 39.5937C20.4648 41.6225 17.388 47.3293 15.0809 44.3491C13.0123 41.6772 13.8795 38.2418 14.2432 33.2839C14.2717 32.9026 13.7396 32.774 13.5867 33.1252C11.8081 37.222 7.96534 48.0736 14.1833 53.8598C15.7254 55.2938 17.5409 56.466 18.7349 58.2338C19.5322 59.4142 19.9631 60.9696 19.5221 62.3598C19.0885 63.7281 17.3494 65.3655 15.9196 64.1869C14.7182 63.1972 14.5065 61.0909 14.2883 59.6742C14.0931 58.4026 13.9937 57.12 13.8031 55.8475C13.7663 55.6039 13.5969 54.3013 13.259 55.0648C12.4194 56.9622 9.8416 64.4068 13.5223 70.3088C14.0415 71.1417 14.6096 71.9462 15.1518 72.7636C16.7141 75.1216 18.7524 77.1915 21.3219 78.4603C25.0376 80.2939 29.4732 80.5593 33.4301 79.3726C38.327 77.9039 42.7423 73.3063 44.7999 68.7507C46.6955 64.5564 46.0704 59.1917 44.2466 55.0648H44.2457Z" fill="black"/>
<path d="M38.8775 1.35742H18.4127C8.49788 1.35742 0.460327 9.32145 0.460327 19.1456V69.9084C0.460327 79.7325 8.49788 87.6965 18.4127 87.6965H38.8775C48.7923 87.6965 56.8299 79.7325 56.8299 69.9084V19.1456C56.8299 9.32145 48.7923 1.35742 38.8775 1.35742Z" stroke="black" stroke-width="1.01587"/>
</g>
<defs>
<clipPath id="clip0_0_142">
<rect width="58" height="88" fill="white" transform="translate(0 0.6875)"/>
</clipPath>
</defs>
</svg>
