<svg width="436" height="657" viewBox="0 0 436 657" fill="none" xmlns="http://www.w3.org/2000/svg">
<path d="M435.002 655.485H1.39479L0.9977 136.544C0.9977 136.544 23.5909 130.523 26.609 119.962C36.9572 83.7532 78.889 93.7385 78.889 93.7385C76.8158 84.7075 85.9638 74.5304 93.9136 68.7009C100.092 64.1684 107.485 60.7599 115.554 58.7639C126.609 56.0274 139.554 55.3906 150.727 58.0104C152.244 58.366 153.769 58.7508 155.206 59.2712C155.937 59.5394 157.978 60.1702 158.24 60.8624C151.609 42.7583 164.609 26.5266 189.816 22.3638C215.022 18.2009 217.15 0.514648 217.15 0.514648C217.15 0.514648 219.271 18.2079 244.485 22.3638C269.691 26.5256 282.7 42.7583 276.061 60.8624C276.314 60.1692 278.364 59.5323 279.094 59.2712C280.532 58.7508 282.056 58.3671 283.574 58.0094C294.747 55.3976 307.691 56.0274 318.746 58.7639C326.806 60.7599 334.208 64.1684 340.387 68.7009C348.336 74.5374 357.485 84.7065 355.412 93.7385C355.412 93.7385 397.336 83.7462 407.691 119.962C410.709 130.523 434.581 136.784 434.581 136.784L435.002 655.485Z" fill="#CFFD3C" stroke="black" stroke-width="1.2498"/>
</svg>
